<svg xmlns="http://www.w3.org/2000/svg" viewBox="0 0 596 135">
  <g fill="none" fill-rule="evenodd">
    <path d="M453.63 52.61s12.19-6 11.28 4.35c0 0 5.69-12 17-6.91 4.63 2.11 7.85 7.39 9.37 16.25 2.66 15.45 9.42 16.59 13.05 10.33a15.64 15.64 0 01-6.44-15c2.45-18.66 28.7-14.89 33.69-2.3 0 0-9-22.22 1.95-41.28 0 0 9.14-6.48 11.47-.4-3.11 10.75-4.24 44.43-4.24 44.43s1.44 13 6.49 11.84c9.32-2.12 11.23-24.38 8.46-32-1.26-3 12.56-7.52 23 10.69 18.26 31.87-4.38 45.27-17.87 38.88-11.26-5.33-3.19-24.91 17.32-20.56l.25 2.68c-5.88-2.77-18.16-1-18.38 8.9-.16 7.29 12.84 8.3 14.75-6 1.71-12.71-9.76-25.69-10.93-25.16-1.17.53-4.94 25.4-17.39 25.68-6 .14-9.62-6.45-9.62-6.45-.62 3.39-10.07 14.68-28.41 7.8-5 4.63-11.76 5.51-19.69 1.84-7.93-3.67-9.2-12.31-10.61-18.49-1.35-5.9-8.95-5.69-11.23-2.38-1.75 2.52-.88 18-1.5 18.12 0 0-8.19 1.88-10.5-.62-2.07-2.17-1.21-18.37-1.27-24.24zm75.76 12.37c-5.12-11.24-18.58-10.71-20-2a10.43 10.43 0 0015.74 10.77 8.69 8.69 0 004.26-8.77zm-351-47.34c-6.63 4.26-7-4.18-41.19-5.85-12.2-.59-25.15.62-38.46 2.53-.77 11.47-5.86 76.47-11.55 79.3-6 3-14.71-3.21-14.71-3.21s3.69-26.61 12.29-73.88c-19.7 3.31-39.9 7.32-59.43 8.62-37.56 2.5-25.42-26.39-13.78-23 11.64 3.39.34 11.72 13.24 14.24 12.9 2.52 51.79-7.33 97.66-12.73 50.54-5.97 64.28 8.58 55.93 13.98z" fill="#000" fill-rule="nonzero"/>
    <path d="M325.56 39.34c-7.85 1-7.56 34.65-22.6 36.56-11.05 1.4-5.73-20-5.73-20s-2.64-6-10.44-5c-8.74 1.1-2.66 23.15-12.71 23.86-2.68-1.1-3.81-29.76 4.38-57.12 0 0-5.61-9.4-12.89-2.73-9.05 8.33-2.33 41.33-2.33 41.33-18.87-21.6-41.26 3.59-30.33 18a25 25 0 002.81 3.33c-3.65 6.11-11.78 3.9-12.49-10.43-.46-9-3-16.18-7.3-18.84-10.61-6.5-20.33 9.47-20.33 9.47.91-10.38-10.49-4.35-10.49-4.35s-5.61 22.25-17.3 24.79c-10 2.19-11.56-5.1-11.56-5.1s13.21-4.44 17.28-13.15c6.56-14.07-13.19-22-22.69-11.81-7.46 8-8.59 18.94-7 24.19 0 0-1.22 5.53-5.7 6.28s-10.19-3.56-1.7-23.15-7.37-16.23-13.65-10.44c-6.28 5.79-7.64-6.69-14.06-1.07-5.57 4.88-.28 17.74-3.9 30.33 0 0 3.62 5.33 6.69.2 2.41-4 2.36-23.22 2.36-23.22 3.56 2.64 12.7-.58 13-.68-6.28 13.45-8.11 32.85 6.91 31.7 9.78-.75 11.55-5.6 11.55-5.6s5.33 7.32 17.1 6.72a26.17 26.17 0 0022.64-16.12c.14 3.57.5 9.55 1.29 10.4 2.31 2.5 9.72.62 9.72.62.62-.12 0-15.45 1.49-18.12 3.41-6.09 12.53-6.77 13.13-.73.65 6.29.79 17.92 8.72 21.59 7.75 3.6 15.16 2.84 20.12-1.52 2.42.86 4.96 1.32 7.53 1.38 13.58.44 17.31-8 17.31-8s2.54 7.15 8 6.87c8.48-.41 11.12-11.9 11.12-11.9 0 7.13 5.38 13.51 18.49 13.1 8.91-.27 14.65-11.27 14.65-11.27-2.21 9.34-5.85 59.5-2.62 62.51 3.23 3.01 9.14 2.65 10.73-.56 0 0 .3-34.16 2.85-58 2.55-23.84 7.41-29.3 7.41-29.3s-1.61-6.02-9.46-5.02zM166.13 49.59c6.46 1.21 2.1 16.52-10.64 18.92-4.14-6.67 4.46-20.08 10.64-18.92zm76.46 19.65c-4.84-9.29 10.29-21.3 20-7.31l.06 4.87c-1.56 7.09-15.24 11.63-20.06 2.44zM347.55 33.5c-.42 24.11-7 45.54-4.63 49.56 1 1.62 13 1.11 13-.48-.13-5 .65-15.89 2.86-34 4.28 1.47 7.21 30.27 18.48 30 11.27-.27 24.28-29.41 27.7-37.5 3.45 0-4.51 30.68 8.22 54.74 12.73 24.06 38.46 22.93 39.29 19.07.83-3.86-25.74 1.85-31.41-38.67-5.21-37.28 8.6-72.89 8.6-72.89s-11.06-5.94-17.6-1.95c-6.54 3.99-12.37 49-32.27 68-1.82.53-11.22-19.41-12.54-36.61-.56-6.77-19.7.73-19.7.73z" fill="#000" fill-rule="nonzero"/>
    <path d="M434.1 51.37s10.14-3.19 10.58 5.57c.25 5 .23 18.32-1.16 20.26-1 1.37-7.64 1.34-9 .82-2.1-.78-.94-18.78-.42-26.65z" fill="#000"/>
    <path d="M440.53 5.17c.33-.16.37-.07 1.67-.07h15.12c.5 0 .74 0 1 .17.16.18.2.43.11.65-.05.08-7.82 18.64-7.9 18.93a.57.57 0 00.54.74h3.39a.56.56 0 01.45.93c-.41.72-13.37 16.72-13.67 17.08a.57.57 0 01-1-.37c0-.72 1.14-16.7 1.14-17 0-.3-.24-.56-.66-.56h-5.48c-.3 0-.72-.1-.66-.66.06-.56 4.78-16.63 5.71-19.43.01-.17.1-.32.24-.41z" fill="#D18316"/>
    <path d="M590.03 32.33a5.55 5.55 0 11-.04 0h.04zm-.07 1.11a4.42 4.42 0 00.07 8.83 4.21 4.21 0 004.21-4.41 4.27 4.27 0 00-4.25-4.42h-.03zm-.84 7.28h-1.28v-5.48c.7-.14 1.4-.2 2.12-.2.67-.07 1.34.08 1.92.43.35.3.55.73.54 1.18-.04.66-.53 1.2-1.18 1.31v.07c.53.16.84.6 1 1.34.05.47.18.93.4 1.35h-1.38a4.34 4.34 0 01-.44-1.31c-.1-.61-.44-.88-1.15-.88h-.6l.05 2.19zm0-3.1h.61c.71 0 1.28-.23 1.28-.81 0-.58-.37-.84-1.18-.84-.24 0-.48.02-.71.07v1.58z" fill="#000" fill-rule="nonzero"/>
  </g>
</svg>
