<?xml version="1.0" encoding="UTF-8"?>
<svg xmlns="http://www.w3.org/2000/svg" width="295px" height="300px" viewBox="0 0 54 55">
  <g id="Page-1" stroke="none" stroke-width="1" fill="none" fill-rule="evenodd">
    <g id="logo-craft-cms" fill="#E5422B" fill-rule="nonzero">
      <path d="M47.81.6H5.62A5.6 5.6 0 000 6.23V48.4a5.6 5.6 0 005.63 5.63H47.8c3.06 0 5.63-2.5 5.63-5.63V6.23A5.6 5.6 0 0047.8.6zM26.62 33.16c1.75 0 3.63-.68 5.44-2.31l2.5 2.88c-2.62 2.12-5.62 3.3-8.62 3.3-5.94 0-9.69-3.93-8.82-9.5.88-5.55 5.94-9.5 11.88-9.5a9.96 9.96 0 017.44 3.2l-3.5 2.87a5.75 5.75 0 00-4.56-2.19 6.73 6.73 0 00-6.88 5.63c-.5 3.31 1.5 5.62 5.13 5.62z" id="Shape"></path>
    </g>
  </g>
</svg>
