<?xml version="1.0" encoding="UTF-8"?>
<svg xmlns="http://www.w3.org/2000/svg" width="300px" height="75px" viewBox="0 0 220 55">
  <path fill="#E5422B" d="M76.19 33.16c-3.63 0-5.63-2.31-5.13-5.62.56-3.38 3.31-5.63 6.88-5.63 1.87 0 3.56.88 4.56 2.19l3.5-2.88a9.74 9.74 0 00-7.44-3.18c-5.87 0-11 3.94-11.87 9.5-.88 5.62 2.87 9.5 8.81 9.5 3 0 6-1.25 8.63-3.31l-2.5-2.88c-1.82 1.63-3.7 2.31-5.44 2.31m23.5-14.93l-.81-.13c-.82-.13-1.7-.06-2.5 0-.75.06-1.5.19-2.25.44a7.1 7.1 0 00-1.88.81l.13-.88h-4.25L85.25 36.6h4.25l1.69-10.56c.06-.63.31-1.19.62-1.69s.75-.94 1.25-1.25c.5-.38 1-.63 1.56-.81a7.91 7.91 0 011.75-.38c.82-.06 1.7 0 2.5.19h.07c.12 0 .75-3.88.75-3.88m14.87 1.38c-1.19-1-3-1.56-5.12-1.56a11.23 11.23 0 00-11.06 9.44c-.88 5.62 2.8 9.43 7.93 9.43 2.31 0 4.25-.31 5.88-1.43l-.13 1h3.88l2.81-18h-4l-.19 1.12zm-.87 7.88c-.56 3.43-3.13 5.8-6.44 5.8-3.38 0-5.31-2.5-4.75-5.87a6.65 6.65 0 016.56-5.75c3.31.07 5.13 2.38 4.63 5.82zm24.69-9l.8-5.13-4.87 3.5-.25 1.69h-5.5l.56-3.44c.32-1.62 2.07-1.56 2.07-1.56h2.06l.63-3.75h-2.94c-5.81 0-6 4.5-6 4.5l-.38 2.12-.31 2.13h-.38l-4.75 3.75h4.5l-2.87 18.31h4.38L128 22.22h5.5l-2.25 14.38h4.31l2.25-14.38h5.38l.62-3.74h-5.44zm11.56 9.06c.87-5.56 5.94-9.5 11.87-9.5a9.96 9.96 0 017.44 3.19l-3.5 2.87a5.75 5.75 0 00-4.56-2.19 6.73 6.73 0 00-6.88 5.63c-.5 3.31 1.5 5.62 5.13 5.62 1.75 0 3.62-.68 5.44-2.31l2.5 2.88c-2.63 2.12-5.63 3.3-8.63 3.3-5.94 0-9.69-3.87-8.81-9.5m50.62-1.93l-1.69 11h-4.25l1.7-10.69c.43-2.5-.94-4-3.38-4-2.56 0-5.13 1.57-5.5 4.13l-1.69 10.56h-4.25l1.69-10.69c.37-2.43-1.06-3.93-3.38-4-2.37.13-5.12 1.63-5.5 4.13l-1.69 10.56h-4.25l2.88-18.13h4.25l-.13.88a10.05 10.05 0 015.13-1.31h.38c2.62 0 4.75 1.06 5.87 2.87a10.06 10.06 0 017.13-2.87c4.62 0 7.43 3.06 6.68 7.56m-.19 8.81l2.63-3.25c1.44 1.13 4.19 2 6.5 2 2.13 0 4.25-.43 4.5-1.87.19-1.13-1.88-1.5-4.19-1.88-4.81-.81-7.25-1.81-6.75-5.43.75-4.57 5.44-5.88 9.31-5.88 2.75 0 5.63.94 7.57 2.25l-2.63 3.25a10.65 10.65 0 00-5.62-1.63c-2.56 0-4.06.76-4.25 1.94-.13.82.56 1.13 3.56 1.63 4.38.75 8 1.44 7.31 5.62-.56 3.82-4.44 5.94-9.5 5.94-2.81-.06-6.44-1.06-8.44-2.69M47.81.6H5.62A5.6 5.6 0 000 6.23V48.4a5.6 5.6 0 005.63 5.63H47.8c3.06 0 5.63-2.5 5.63-5.63V6.23A5.6 5.6 0 0047.8.6M26.62 33.16c1.75 0 3.63-.68 5.44-2.31l2.5 2.88c-2.62 2.12-5.62 3.3-8.62 3.3-5.94 0-9.69-3.93-8.82-9.5.88-5.55 5.94-9.5 11.88-9.5a9.96 9.96 0 017.44 3.2l-3.5 2.87a5.75 5.75 0 00-4.56-2.19 6.73 6.73 0 00-6.88 5.63c-.5 3.31 1.5 5.62 5.13 5.62"></path>
</svg>
